<?xml version="1.0" encoding="UTF-8"?>
<!DOCTYPE svg PUBLIC "-//W3C//DTD SVG 1.1//EN" "http://www.w3.org/Graphics/SVG/1.1/DTD/svg11.dtd">
<!-- Creator: CorelDRAW 2019 (64 Bit) -->
<svg xmlns="http://www.w3.org/2000/svg" xml:space="preserve" width="210mm" height="297mm" version="1.1" style="shape-rendering:geometricPrecision; text-rendering:geometricPrecision; image-rendering:optimizeQuality; fill-rule:evenodd; clip-rule:evenodd"
viewBox="0 0 21000 29700"
 xmlns:xlink="http://www.w3.org/1999/xlink">
 <defs>
  <style type="text/css">
   <![CDATA[
    .str2 {stroke:#F4CFB5;stroke-width:20;stroke-miterlimit:22.9256}
    .str0 {stroke:#FFFF99;stroke-width:20;stroke-miterlimit:22.9256}
    .str1 {stroke:#420906;stroke-width:7.62;stroke-miterlimit:22.9256}
    .fil3 {fill:#141413}
    .fil2 {fill:#420906}
    .fil5 {fill:#420906}
    .fil1 {fill:#AC280A}
    .fil4 {fill:#F4CFB5}
    .fil0 {fill:#FFFF99}
   ]]>
  </style>
 </defs>
 <g id="Camada_x0020_1">
  <metadata id="CorelCorpID_0Corel-Layer"/>
  <ellipse class="fil0 str0" cx="10381.35" cy="13711.69" rx="10480.5" ry="11252.74"/>
  <g id="_1701539141568">
   <g>
    <path class="fil1" d="M6655.43 16565.59c-124.28,203.97 49.48,55.55 -250.48,290.33 -23.7,18.52 -214.63,123.98 -243.96,136.87 -661.38,291.07 -1632.5,227.67 -2352.69,287.66 -222.78,447.34 -298.32,546.73 -430.45,1127.68 492.52,-55.84 166.79,-112.28 404.68,95.99 26.07,643.75 -119.54,954.52 -121.91,1504.96l504.96 240.7c143.39,-277.88 90.06,-959.41 259.96,-1359.79 224.86,-530.15 118.95,-279.22 367.06,-374.91 118.65,309.73 -149.46,1392.53 -189.01,1906.09l669.83 68.73c11.85,-267.08 8.74,-552.51 42.21,-834.99l141.46 -605.98c10.08,-26.52 33.48,-69.92 42.52,-90.95 8.73,-21.19 27.1,-61.33 45.47,-89.17 216.41,235.52 220.26,266.77 211.82,599.91 -9.18,362.76 -75.4,406.3 -27.11,853.5 913.79,39.1 448.97,-655.61 1069.47,-1184.27 21.33,25.77 49.03,38.07 52.59,85.32l44.44 339.95c-87.4,389.87 -125.47,-52.29 -221.16,629.39 697.97,-282.78 1003.56,-272.26 1292.11,-964.75 -504.52,215.97 -454.6,369.13 -936.75,437.42 108.13,-700.19 401.27,-185.75 653.08,-1033.92 336.84,-1134.5 30.52,53.77 2474.15,-1664.05 445.57,-313.28 1562.44,-1296.1 1292.99,-2053.02l-177.45 -242.19c-719.6,-944.75 -2326.32,-1533.7 -3329.43,-1697.97 -337.73,265.29 -611.02,738.26 -843.13,1066.06 -278.33,392.69 -638.72,798.26 -776.63,1203.23 220.12,103.25 668.05,197.75 909.5,250.63 635.61,-757.22 494.89,-635.9 1310.47,-1140.42 383.64,-237.3 127.98,-187.08 687.3,-261.44 -430.6,801.06 -814.1,665.97 -1339.2,1238.77l-1236.71 1234.63z"/>
    <path class="fil2 str1" d="M2751.72 15210.98c1020.44,-192.27 1661.53,233 2189.6,388.09 491.33,144.42 426.01,-45.32 597.69,396.83 -428.24,222.19 -1378.61,-410.6 -2782.7,-491.33 226.19,409.57 10.07,166.94 1316.84,459.93 2986.37,669.38 792.77,16.74 2735,-119.09 191.23,-104.73 -319.21,-119.1 -370.91,-120.58 -336.98,-9.48 -400.38,29.48 -659.01,117.91 -32,-854.24 1382.61,-2503.77 1858.83,-3268.85 -686.26,-280.69 -3077.46,-932 -3913.49,-990.22 -396.97,1211.82 -815.87,2053.92 -971.85,3627.31z"/>
    <path class="fil3" d="M11450.71 14914.29c269.45,756.92 -847.42,1739.74 -1292.99,2053.02 -2443.63,1717.82 -2137.31,529.55 -2474.15,1664.05 -251.81,848.17 -544.95,333.73 -653.08,1033.92 482.15,-68.29 432.23,-221.45 936.75,-437.42 357.28,-745.37 -77.92,-637.09 805.51,-988l2303.95 -1472.07c414.9,-383.5 600.06,-724.64 751,-1315.81 476.22,213.9 1540.8,76.14 2230.77,26.07 131.39,363.5 271.07,516.52 436.38,723.3 652.05,10.22 1588.51,-231.07 1904.01,-581.69 -322.61,-213.89 -1212.7,59.25 -1698.71,149.61l-672.49 -2001.33c-161.75,-686.12 180.86,-1594.43 442.9,-2149.9 314.32,-665.98 573.4,-604.06 1814.69,-935.71 795.73,-212.71 1504.07,-244.12 2014.96,-720.78 -325.73,-190.5 -1921.2,275.36 -2440.53,415.19 -1960.74,528.22 -1052.73,443.64 -1733.81,664.64 -244.11,79.25 -464.67,74.96 -701.23,153.91 -54.66,-898.09 185.01,-2400.68 -354.76,-2868.76 -219.52,320.1 -39.4,2773.36 -10.52,3036.29 -425.41,185.45 -1587.76,454.3 -1557.39,1059.1 309.88,-25.92 1173.01,-732.49 2561.24,-965.49 -557.69,1945.93 -489.7,1571.77 -139.24,3580.06 -539.47,166.79 -1343.79,223.97 -2042.5,137.9 -101.92,-947.26 -383.65,-1529.84 -1496.67,-1933.04 172.42,-699.45 825.95,-4647.3 409.42,-5239.66 -216.12,267.22 -640.2,4278.03 -654.12,4969.92 -556.81,-64.14 -1182.05,-506.44 -1750.26,-236.41l153.01 121.17c622.87,345.73 2475.63,539.18 2907.86,2057.92z"/>
    <path class="fil3" d="M7637.06 12573.89c-476.22,765.08 -1890.83,2414.61 -1858.83,3268.85 258.63,-88.43 322.03,-127.39 659.01,-117.91 51.7,1.48 562.14,15.85 370.91,120.58 -474.89,468.67 -730.41,583.76 -1407.64,751.73 -1026.07,254.49 -1227.97,-184.12 -1645.24,335.81 854.25,296.69 2114.5,-34.37 2900.16,-367.36l1236.71 -1234.63c525.1,-572.8 908.6,-437.71 1339.2,-1238.77 -559.32,74.36 -303.66,24.14 -687.3,261.44 -815.58,504.52 -674.86,383.2 -1310.47,1140.42 -241.45,-52.88 -689.38,-147.38 -909.5,-250.63 137.91,-404.97 498.3,-810.54 776.63,-1203.23 232.11,-327.8 505.4,-800.77 843.13,-1066.06l211.82 -740.63c-480.07,-332.39 -3596.2,-1653.83 -4341.27,-1128.72 221.89,192.71 704.78,288.4 1001.62,355.8 1822.84,413.72 2181.75,727.89 3005.18,923.57l-184.12 189.74z"/>
    <path class="fil3" d="M6675.13 20192.61c95.69,-681.68 133.76,-239.52 221.16,-629.39l-44.44 -339.95c-3.56,-47.25 -31.26,-59.55 -52.59,-85.32 -620.5,528.66 -155.68,1223.37 -1069.47,1184.27 -48.29,-447.2 17.93,-490.74 27.11,-853.5 8.44,-333.14 4.59,-364.39 -211.82,-599.91 -18.37,27.84 -36.74,67.98 -45.47,89.17 -9.04,21.03 -32.44,64.43 -42.52,90.95l-141.46 605.98c-33.47,282.48 -30.36,567.91 -42.21,834.99l-669.83 -68.73c39.55,-513.56 307.66,-1596.36 189.01,-1906.09 -248.11,95.69 -142.2,-155.24 -367.06,374.91 -169.9,400.38 -116.57,1081.91 -259.96,1359.79l-504.96 -240.7c2.37,-550.44 147.98,-861.21 121.91,-1504.96 -237.89,-208.27 87.84,-151.83 -404.68,-95.99l-215.52 1219.82c-536.96,-139.53 -507.48,72.29 -349.14,-557.99 16.15,-64.14 613.54,-1368.39 635.61,-2050.06 1.33,-39.85 1.63,-56.44 -3.7,-83.99 -489.85,8.59 -522.29,665.23 -674.86,1175.97 -113.91,381.72 -872.17,1395.94 383.49,2669.68 557.85,565.99 892.02,84.72 1181.9,-209.31 360.54,470.3 791.44,155.54 1286.18,173.16 740.93,26.52 752.18,62.81 1053.32,-552.8z"/>
    <path class="fil3" d="M10937.9 7617.16l102.65 -188.87c290.92,-914.67 -75.39,-2259.66 1274.63,-2353.72 632.79,-43.99 605.09,12.15 1256.25,-104.13 195.83,194.93 215.82,277.88 400.83,470.15 199.97,207.67 257.3,198.64 467.19,341.43 -140.72,553.7 -536.36,902.53 -571.17,1389.13 606.58,-186.94 308.1,-99.84 663.01,-543.48 341.14,973.34 -782.7,978.82 -1095.09,1728.04 1391.05,-90.5 2162.78,-1510.88 788.62,-3183.82 -16.3,-19.85 -38.07,-49.77 -53.62,-70.06 -161.46,-210.93 -254.34,-362.61 -358.17,-507.04 -652.35,-39.84 -2250.48,-3.26 -2599.02,522 -408.24,615.17 -660.64,1819.13 -276.11,2500.37z"/>
    <path class="fil3" d="M2751.72 15210.98l4.59 293.59c1404.09,80.73 2354.46,713.52 2782.7,491.33 -171.68,-442.15 -106.36,-252.41 -597.69,-396.83 -528.07,-155.09 -1169.16,-580.36 -2189.6,-388.09z"/>
    <path class="fil3" d="M16150.16 18325.33c107.54,-705.23 -1329.58,-969.48 -1610.28,-815.28 243.37,350.02 1181.01,563.91 1610.28,815.28z"/>
    <path class="fil3" d="M13518.41 18190.09c101.02,100.13 836.76,1292.7 1442.59,1485.71 -111.39,-591.32 -791.88,-1337.58 -1442.59,-1485.71z"/>
    <path class="fil3" d="M9428.8 20662.17c443.63,-103.25 491.03,-211.68 597.24,-687.9 79.99,-359.21 143.53,-625.09 33.92,-842.84 -302.77,185.75 -36.29,-283.51 -276.7,355.36l-354.46 1175.38z"/>
   </g>
   <path class="fil4 str2" d="M13329.11 14747.77c177.15,-280.72 130.12,-751.09 112.48,-1156.78 -17.64,-405.7 -5.88,-746.71 41.15,-1040.69 47.04,-293.99 129.36,-540.93 -76.43,-564.45 -205.79,-23.52 -699.67,176.38 -1046.57,346.89 -346.9,170.51 -546.81,311.63 -723.2,346.91 -176.39,35.27 -329.26,-35.28 -382.18,-170.51 -52.91,-135.24 -5.88,-335.14 82.31,-499.77 88.2,-164.63 217.56,-293.99 364.55,-405.7 146.99,-111.71 311.62,-205.79 482.13,-293.98 170.51,-88.19 346.9,-170.51 446.85,-235.18 99.96,-64.68 123.47,-111.71 135.23,-246.94 11.76,-135.24 11.76,-358.66 11.76,-746.72 0,-388.06 0,-940.74 52.91,-1322.92 52.92,-382.18 158.76,-593.84 335.15,-758.47 176.39,-164.63 423.33,-282.23 668.21,-414.25 244.89,-132.02 487.7,-278.48 493.16,-349.89 5.46,-71.42 -226.44,-67.79 -342.39,-65.98 -115.95,1.81 -115.95,1.81 -150.81,-67.88 -34.85,-69.7 -104.57,-209.09 -50.57,-466.06 54.01,-256.97 231.73,-631.52 217.11,-928.61 -14.62,-297.09 -221.57,-516.72 -599.78,-596.47 -378.2,-79.76 -927.66,-19.64 -1312.01,153.71 -384.35,173.34 -603.59,459.92 -750.68,839.5 -147.09,379.58 -222.01,852.18 -282.01,1444.71 -59.99,592.53 -105.06,1305 -156.64,2174.35 -51.57,869.34 -109.67,1895.56 -185.46,2457.02 -75.78,561.45 -169.26,658.15 -135.17,799.6 34.1,141.44 195.78,327.63 448.3,514.47 252.53,186.84 595.91,374.32 753.54,654.55 157.64,280.22 129.53,653.19 193.44,845.71 63.91,192.52 219.85,204.58 498.48,165.08 278.64,-39.49 679.99,-130.54 857.14,-411.25z"/>
   <path class="fil4 str2" d="M13679.48 14939.72c-81.41,98.2 -407.31,99.62 -493.59,-408.82 -86.28,-508.44 67.07,-1526.74 203.52,-2079.01 136.45,-552.28 256.01,-638.51 352.64,-681.98 96.63,-43.48 170.33,-44.19 115.29,409.89 -55.04,454.07 -238.83,1362.94 -249.18,1914.85 -10.35,551.91 152.73,746.88 71.32,845.07z"/>
   <path class="fil5 str2" d="M15005.39 15577.9c-181.23,-88.73 -362.66,-304.07 -525.65,-626.84 -162.98,-322.76 -307.53,-752.94 -340.21,-1246.15 -32.67,-493.21 46.52,-1049.45 250.07,-1519.37 203.55,-469.92 531.44,-853.54 936.07,-1074.3 404.63,-220.77 886,-278.68 1292.72,-382.11 406.72,-103.44 738.8,-252.38 1006.66,-387.89 267.87,-135.52 471.51,-257.61 470.1,-106.7 -1.41,150.91 -207.87,574.82 -469.86,1163.07 -261.98,588.24 -579.48,1340.83 -826.43,1934.67 -246.94,593.84 -423.33,1028.94 -513.41,1371.97 -90.07,343.03 -93.82,594.01 -202.23,726.44 -108.41,132.43 -321.47,146.33 -518.52,172.21 -197.05,25.88 -378.08,63.74 -559.31,-25z"/>
  </g>
 </g>
</svg>
